# xmcd
#
# Track frame offsets:
# 183
# 9768
# 24070
# 39883
# 58123
# 69888
# 80223
# 92708
# 105383
# 122093
# 143448
# 156570
# 172060
# 182480
# 199453
# 213410
# 223120
# 242445
# 258583
# 275833
#
# Disc length: 3932 seconds
#
#
# Revision: 0
# Processed by: cddbd v1.5.2PL0 Copyright (c) Steve Scherf et al.
# Submitted via: FreeRIP 2.941 
#
DISCID=170f5a14
DTITLE=Drahý mùj
DYEAR=1900
DGENRE=Country
TTITLE0=Drahý mùj
TTITLE1=Cekej tise
TTITLE2=Blizzard
TTITLE3=Sto let
TTITLE4=Sea Of Heartbreak
TTITLE5=Expres
TTITLE6=Haj modrinu
TTITLE7=My Banjo
TTITLE8=Zavidim
TTITLE9=Kapka rosy
TTITLE10=Tam kde tece Mississippi
TTITLE11=Na vetvi
TTITLE12=Kver a flaska ginu
TTITLE13=Becko z okresniho mesta
TTITLE14=Apartma v hotelu Sen
TTITLE15=Travelin`Light
TTITLE16=Vic nez pritel
TTITLE17=Eight Days a Week
TTITLE18=Me Eldorado
TTITLE19=Let The Music Lift You Up
EXTD=Country Beat Jiriho Brabce 1967-1991
EXTT0=
EXTT1=
EXTT2=
EXTT3=
EXTT4=
EXTT5=
EXTT6=
EXTT7=
EXTT8=
EXTT9=
EXTT10=
EXTT11=
EXTT12=
EXTT13=
EXTT14=
EXTT15=
EXTT16=
EXTT17=
EXTT18=
EXTT19=
PLAYORDER=
